# xmcd
# 
# Track frame offsets:
#     150
#     23900
#     80117
#     110880
# 
# Disc length: 2215
# 
# Revision: 1
# Processed by: cddbd v1.5.2PL0 Copyright (c) Steve Scherf et al.
# Submitted via: BonkEnc v1.0.8
# 
DISCID=3108a504
DTITLE=Randy Weston - Blue Moses
DYEAR=1972
DGENRE=Fusion
TTITLE0=Ifrane
TTITLE1=Ganawa (Blue Moses)
TTITLE2=Night In Medina
TTITLE3=Marrakesh Blues
EXTD=YEAR: 1972
EXTT0=
EXTT1=
EXTT2=
EXTT3=
PLAYORDER=
